SubjTestsquat
version=1
nRows=35
nColumns=19
inDegrees=no
endheader
time	l_ground_force_vx	l_ground_force_vy	l_ground_force_vz	l_ground_force_px	l_ground_force_py	l_ground_force_pz	ground_force_vx	ground_force_vy	ground_force_vz	ground_force_px	ground_force_py	ground_force_pz	l_ground_torque_x	l_ground_torque_y	l_ground_torque_z	ground_torque_x	ground_torque_y	ground_torque_z	
41.43	0.36570478888778	281.688005301555	42.6113946875309	0.162390508371289	0	-0.148546848818565	8.11526402994284	281.433761270766	-40.8225049684184	0.158358211529014	0	0.146138191893976	0	4.93608443091965	0	0	8.65757513872194	0
41.44	0.912291321993116	284.04714248909	42.6897392323464	0.161052679447906	0	-0.148356846241005	8.33311523455677	283.668060738716	-40.9447049250173	0.157409289134531	0	0.145999285935038	0	5.62532473525687	0	0	8.66939221103861	0
41.45	1.52902139298494	286.446382189158	42.5839870272592	0.15907624982884	0	-0.148324545429807	8.48642301675487	285.615724303793	-40.86355830673	0.156181274643761	0	0.145960082879925	0	6.30328423403351	0	0	8.87226350673797	0
41.46	1.90047805354048	288.514091626283	42.4670770281743	0.157216026625263	0	-0.14833408446455	8.55489068324181	286.523897568874	-40.7053825969797	0.155092308814251	0	0.14597140918107	0	6.65775288387754	0	0	9.04926350602123	0
41.47	1.9954469247299	289.980772481014	42.4740779635276	0.156000928193828	0	-0.148272276568078	8.55368964012281	286.201484639161	-40.6161293822053	0.154465274611176	0	0.145959968910918	0	6.82041623846253	0	0	9.11045514891159	0
41.48	2.0456968816942	290.855022384051	42.5880539547368	0.15528446555866	0	-0.148137018603932	8.56828345443354	285.015316650009	-40.5818519779645	0.154121550302516	0	0.145842652604748	0	7.0030397175981	0	0	9.09040949715937	0
41.49	2.21167870721335	291.303309575667	42.6450433058421	0.154884179835875	0	-0.1480048649297	8.70579620539884	283.560610444786	-40.5482745295971	0.153793189870275	0	0.145680462119423	0	7.23638601276393	0	0	8.95187578902713	0
41.5	2.51214595768696	291.535194856643	42.5482535326423	0.154407663595914	0	-0.147961651232213	9.09788206353999	282.477285614414	-40.3859451151807	0.153084229801299	0	0.14556903759641	0	7.52192520294817	0	0	8.80603899003525	0
41.51	2.89754146004808	291.682731195578	42.4090874907343	0.153513623834858	0	-0.147994463934579	9.69933484484743	282.180079695053	-40.132673923058	0.151943865970583	0	0.145486290524821	0	7.92739188505407	0	0	8.80560787051301	0
41.52	3.3197726908333	291.731192434682	42.4083975380567	0.152444912155701	0	-0.147996084803622	10.2398241358389	282.717864130964	-40.0422130382076	0.151108405179336	0	0.145343883371725	0	8.48023322979195	0	0	8.87640741277629	0
41.53	3.74927392088709	291.635684449324	42.6219878393926	0.151510181164286	0	-0.147953906780495	10.5868750742899	283.919858088059	-40.0750938680151	0.150815133689371	0	0.145123003349963	0	9.13637394825037	0	0	9.03437462756773	0
41.54	4.05821900371147	291.345441499021	42.9889448101285	0.150995156450326	0	-0.14795900321581	10.5891157561026	285.378180590979	-40.2221821577422	0.150851238195751	0	0.14493616061535	0	9.75327710812517	0	0	9.26144186761229	0
41.55	4.10509146090837	290.852071651724	43.3657639510558	0.151089099725707	0	-0.147979426807731	10.2062203287837	286.521746643732	-40.4798780714094	0.150983461557669	0	0.144857129435083	0	10.0719776828707	0	0	9.39696622930878	0
41.56	3.76322927418648	290.152847302876	43.538941875392	0.151610656151119	0	-0.147913603859951	9.51575852262743	286.998279023531	-40.7408118378242	0.151058181565269	0	0.144931657714398	0	9.7975025246781	0	0	9.21401626586936	0
41.57	3.17612070657588	289.246049761548	43.3910650256992	0.152013062151325	0	-0.147801920869744	8.75297126139599	286.865463255278	-40.9349303820686	0.15100424948088	0	0.145072092585747	0	9.07617390943344	0	0	8.78743235699501	0
41.58	2.67713177412066	288.111713171475	43.0218439041851	0.15210021782798	0	-0.147660139430005	8.1383539788783	286.379121766696	-41.0505615143655	0.150900773380761	0	0.145151135628887	0	8.38095121999204	0	0	8.31569807054631	0
41.59	2.50478466128902	286.947720119323	42.5694267025097	0.151688789175078	0	-0.147439093261864	7.82893630716048	285.840248349578	-41.0872670257324	0.150718749705769	0	0.145161875902993	0	8.12823629159552	0	0	7.97751696528704	0
41.6	2.68097731440321	286.064726040874	42.1852998697735	0.150920751001248	0	-0.14720989424862	7.89595588915016	285.472140187726	-41.0897785216625	0.150298978452194	0	0.145102300035766	0	8.3422312541752	0	0	7.91310729000354	0
41.61	2.99950823967021	285.62425539935	41.9843246236919	0.150325807746837	0	-0.147096777028481	8.22621465766957	285.364081484652	-41.1049961545227	0.149670549061877	0	0.144910609936715	0	8.79988814409975	0	0	8.11360471240258	0
41.62	3.28347735613897	285.552126236245	42.0175031523533	0.150081703603012	0	-0.147023258637518	8.64958899470906	285.504002709971	-41.1021950050446	0.149106490603367	0	0.14458006445569	0	9.3284233714071	0	0	8.44754999243005	0
41.63	3.44767905628641	285.745375790804	42.2414993253044	0.149911959287185	0	-0.146907243380939	9.00995414129869	285.773794804555	-41.0295998108199	0.148648184491808	0	0.144184743210657	0	9.69151660695801	0	0	8.70729574124497	0
41.64	3.40264184921392	286.092435522197	42.4977174424631	0.149541007122267	0	-0.146798522636625	9.1655240456128	286.069535299959	-40.9087143501401	0.148208491204108	0	0.143834756082027	0	9.69462476782268	0	0	8.73508758299074	0
41.65	3.10911290230054	286.436159973792	42.7054237739713	0.149135480000365	0	-0.146728462104349	9.11301239696967	286.312137746008	-40.9023778656648	0.147792864531762	0	0.143604284588769	0	9.25258072995305	0	0	8.60652406429752	0
41.66	2.65321702653869	286.637009820362	42.7962331894785	0.148919273726943	0	-0.146712198300405	9.05473965947472	286.396588159093	-41.0909102760823	0.147439391141476	0	0.143467237864778	0	8.60198593730487	0	0	8.63973033058028	0
41.67	2.20865116798938	286.520030173986	42.7243728152759	0.148883274000601	0	-0.146666579075945	9.06782912773037	286.217127620421	-41.2955886376145	0.147175917308727	0	0.143406862063432	0	8.0451680180863	0	0	8.81512510972791	0
41.68	1.90177244005771	286.131143514102	42.538589485649	0.148667501427273	0	-0.146622650407225	9.12264945399825	285.798011875725	-41.3415049506039	0.146741866828351	0	0.143423323069187	0	7.60266890830427	0	0	8.87120022418836	0
41.69	1.85220935971537	285.650810772911	42.3237933913469	0.147952250418186	0	-0.146608138656101	9.28123166898731	285.354586140091	-41.1409899005541	0.145780958109216	0	0.143557254859437	0	7.2730820493615	0	0	8.833319339788	0
41.7	2.03528059058968	285.201128034736	42.1940288309272	0.147045499936776	0	-0.14653311856802	9.60450256626568	285.034606612649	-40.645388602334	0.144546359982696	0	0.143840289849395	0	7.02235988032895	0	0	8.71898875838185	0
41.71	2.30227265231031	284.895769860149	42.0835144733461	0.146114659024916	0	-0.146417369728477	10.052265840802	284.953601313226	-40.0404719399153	0.143484077669184	0	0.144137707391894	0	6.83546218435296	0	0	8.63004473110903	0
41.72	2.62065140381692	284.742977947015	41.9279874832046	0.145170904472452	0	-0.146362200810124	10.5161422654472	285.210798223999	-39.5779181266688	0.142775335183089	0	0.144309905729941	0	6.89967862371329	0	0	8.67766298678814	0
41.73	2.8099779717291	284.637086554937	41.8105150112829	0.144692170810556	0	-0.146338517942093	10.7753713516673	285.665768997063	-39.4532833361698	0.142668622920941	0	0.144254118424138	0	7.17447698632855	0	0	8.73910153566023	0
41.74	2.80527499931582	284.554481064544	41.8804870107386	0.14496729396838	0	-0.146313015707866	10.6937039772644	286.14333687974	-39.7030856006225	0.143150185762089	0	0.143914878043509	0	7.65559868240813	0	0	8.77029997116643	0
41.75	2.64311407491169	284.575546652787	42.12933997984	0.145847890348591	0	-0.14625703594336	10.3537971333877	286.663390660231	-40.0830240854502	0.143941371761704	0	0.143478866914555	0	8.18183414422659	0	0	8.67211523648368	0
41.76	2.42708909310123	284.75628188954	42.3700281612734	0.146730393247836	0	-0.146139435886174	9.96692828773188	287.198509828782	-40.3643956836466	0.144511368537141	0	0.14307004610358	0	8.50878279100409	0	0	8.34244510098149	0
41.77	2.38680348351742	285.056035276115	42.4933149634597	0.147022854309935	0	-0.146032098116146	9.73701408702029	287.663638519242	-40.5451113388282	0.144299218521371	0	0.142775621097116	0	8.66286301194421	0	0	7.96574339065292	0
